<?xml version="1.0" encoding="UTF-8"?>
<svg id="Layer_1" data-name="Layer 1" xmlns="http://www.w3.org/2000/svg" viewBox="0 0 1080 1080">
  <defs>
    <style>
      .cls-1 {
        fill: #6b1836;
      }

      .cls-2 {
        fill: none;
        stroke: #6b1836;
        stroke-miterlimit: 10;
      }
    </style>
  </defs>
  <path class="cls-1" d="m457.87,475.65c8.75,0,16.53,1.55,23.33,4.65,6.8,3.1,12.51,7.46,17.15,13.07,4.63,5.61,8.14,12.39,10.52,20.34,2.38,7.95,3.57,16.77,3.57,26.45s-1.19,18.47-3.57,26.33c-2.38,7.86-5.89,14.6-10.52,20.21-4.63,5.61-10.35,9.92-17.15,12.94-6.8,3.02-14.58,4.53-23.33,4.53s-16.64-1.51-23.4-4.53c-6.76-3.02-12.45-7.33-17.08-12.94-4.63-5.61-8.14-12.35-10.52-20.21-2.38-7.86-3.57-16.64-3.57-26.33s1.19-18.51,3.57-26.45c2.38-7.95,5.88-14.73,10.52-20.34,4.63-5.61,10.33-9.96,17.08-13.07,6.76-3.1,14.55-4.65,23.4-4.65Zm0,125.97c8.5,0,15.98-1.49,22.44-4.46,6.46-2.97,11.84-7.14,16.13-12.5,4.29-5.35,7.52-11.81,9.69-19.38,2.17-7.56,3.25-15.94,3.25-25.12s-1.08-17.57-3.25-25.18c-2.17-7.61-5.4-14.13-9.69-19.57-4.29-5.44-9.67-9.67-16.13-12.69-6.46-3.02-13.94-4.53-22.44-4.53s-16.09,1.51-22.5,4.53c-6.42,3.02-11.77,7.25-16.06,12.69-4.29,5.44-7.52,11.96-9.69,19.57-2.17,7.61-3.25,16-3.25,25.18s1.08,17.55,3.25,25.12c2.17,7.57,5.4,14.02,9.69,19.38,4.29,5.36,9.65,9.52,16.06,12.5,6.42,2.98,13.92,4.46,22.5,4.46Z"/>
  <path class="cls-1" d="m120.32,604.99v-186.49h31v73.54c5.1-5.44,10.88-9.77,17.32-12.99,6.44-3.22,13.97-4.83,22.59-4.83,7.03,0,13.45,1.44,19.26,4.33,5.81,2.89,10.83,7.09,15.06,12.61,4.22,5.52,7.49,12.34,9.79,20.45,2.3,8.12,3.45,17.45,3.45,27.99,0,9.62-1.3,18.53-3.89,26.73-2.59,8.2-6.3,15.31-11.11,21.33-4.81,6.02-10.63,10.73-17.44,14.12-6.82,3.39-14.45,5.08-22.9,5.08-3.93,0-7.53-.4-10.79-1.19-3.26-.79-6.23-1.9-8.91-3.33-2.68-1.42-5.17-3.16-7.47-5.21-2.3-2.05-4.5-4.33-6.59-6.84l-1.38,8.66c-.5,2.18-1.36,3.72-2.57,4.64-1.21.92-2.87,1.38-4.96,1.38h-20.46Zm60.24-106.67c-6.44,0-11.94,1.36-16.5,4.08-4.56,2.72-8.81,6.55-12.74,11.48v57.73c3.51,4.35,7.34,7.39,11.48,9.1,4.14,1.72,8.64,2.57,13.49,2.57s8.91-.88,12.68-2.63,6.97-4.43,9.6-8.03c2.64-3.6,4.66-8.13,6.09-13.62,1.42-5.48,2.13-11.94,2.13-19.39s-.61-13.91-1.82-19.14c-1.21-5.23-2.95-9.47-5.21-12.74-2.26-3.26-5-5.65-8.22-7.15-3.22-1.5-6.88-2.26-10.98-2.26Z"/>
  <path class="cls-1" d="m315.18,474.5c9.6,0,18.3,1.55,26.11,4.63,7.81,3.09,14.46,7.47,19.97,13.15,5.51,5.68,9.77,12.61,12.77,20.79,3.01,8.18,4.51,17.32,4.51,27.43s-1.5,19.37-4.51,27.55c-3.01,8.18-7.26,15.15-12.77,20.91-5.51,5.76-12.17,10.19-19.97,13.27-7.81,3.09-16.51,4.63-26.11,4.63s-18.33-1.55-26.17-4.63c-7.85-3.09-14.55-7.51-20.1-13.27-5.55-5.76-9.85-12.73-12.9-20.91-3.05-8.18-4.57-17.36-4.57-27.55s1.52-19.24,4.57-27.43c3.05-8.18,7.35-15.11,12.9-20.79,5.55-5.68,12.25-10.06,20.1-13.15,7.85-3.09,16.57-4.63,26.17-4.63Zm0,108.58c10.69,0,18.6-3.59,23.73-10.77,5.13-7.18,7.7-17.7,7.7-31.56s-2.57-24.42-7.7-31.69c-5.13-7.26-13.05-10.89-23.73-10.89s-18.87,3.65-24.04,10.96c-5.18,7.31-7.76,17.85-7.76,31.62s2.59,24.27,7.76,31.49c5.18,7.22,13.19,10.83,24.04,10.83Z"/>
  <path class="cls-1" d="m454.14,474.5c9.6,0,18.3,1.55,26.11,4.63,7.81,3.09,14.46,7.47,19.97,13.15,5.51,5.68,9.77,12.61,12.77,20.79,3.01,8.18,4.51,17.32,4.51,27.43s-1.5,19.37-4.51,27.55c-3.01,8.18-7.26,15.15-12.77,20.91-5.51,5.76-12.17,10.19-19.97,13.27-7.81,3.09-16.51,4.63-26.11,4.63s-18.33-1.55-26.17-4.63c-7.85-3.09-14.55-7.51-20.1-13.27-5.55-5.76-9.85-12.73-12.9-20.91-3.05-8.18-4.57-17.36-4.57-27.55s1.52-19.24,4.57-27.43c3.05-8.18,7.35-15.11,12.9-20.79,5.55-5.68,12.25-10.06,20.1-13.15,7.85-3.09,16.57-4.63,26.17-4.63Zm0,108.58c10.69,0,18.6-3.59,23.73-10.77,5.13-7.18,7.7-17.7,7.7-31.56s-2.57-24.42-7.7-31.69c-5.13-7.26-13.05-10.89-23.73-10.89s-18.87,3.65-24.04,10.96c-5.18,7.31-7.76,17.85-7.76,31.62s2.59,24.27,7.76,31.49c5.18,7.22,13.19,10.83,24.04,10.83Z"/>
  <path class="cls-2" d="m724.37,477.69v81.22c0,7.81,1.81,13.85,5.42,18.13,3.61,4.28,9.03,6.42,16.26,6.42,5.31,0,10.3-1.18,14.95-3.55,4.65-2.37,9.05-5.62,13.2-9.78v-92.44h30.77v127.82h-18.81c-3.99,0-6.6-1.87-7.85-5.61l-2.12-10.21c-2.66,2.66-5.4,5.09-8.22,7.29-2.82,2.2-5.84,4.07-9.03,5.6-3.2,1.54-6.65,2.74-10.34,3.61-3.7.87-7.66,1.31-11.9,1.31-6.98,0-13.14-1.18-18.5-3.55-5.36-2.37-9.86-5.71-13.52-10.03-3.66-4.32-6.42-9.45-8.28-15.38-1.87-5.94-2.8-12.48-2.8-19.62v-81.22h30.77Z"/>
  <path class="cls-2" d="m841.19,662.5v-184.86h18.85c2,0,3.7.46,5.12,1.37,1.41.92,2.33,2.33,2.75,4.24l2.5,11.86c5.16-5.91,11.09-10.69,17.79-14.36,6.7-3.66,14.54-5.49,23.53-5.49,6.99,0,13.38,1.46,19.16,4.37,5.78,2.91,10.78,7.14,14.98,12.67,4.2,5.53,7.45,12.36,9.74,20.47,2.29,8.11,3.43,17.41,3.43,27.9,0,9.57-1.29,18.43-3.87,26.59-2.58,8.16-6.26,15.23-11.05,21.22-4.79,5.99-10.57,10.67-17.35,14.04-6.78,3.37-14.38,5.06-22.78,5.06-7.24,0-13.38-1.1-18.41-3.31-5.04-2.2-9.55-5.26-13.54-9.17v67.4h-30.83Zm59.92-162.89c-6.41,0-11.88,1.35-16.42,4.06-4.54,2.71-8.76,6.51-12.67,11.42v57.42c3.49,4.33,7.3,7.35,11.42,9.05,4.12,1.71,8.55,2.56,13.29,2.56s8.88-.87,12.67-2.62c3.79-1.75,6.99-4.41,9.61-7.99,2.62-3.58,4.64-8.09,6.05-13.54,1.41-5.45,2.12-11.88,2.12-19.29s-.6-13.83-1.81-19.04c-1.21-5.2-2.93-9.42-5.18-12.67-2.25-3.25-4.97-5.62-8.18-7.12-3.2-1.5-6.85-2.25-10.92-2.25Z"/>
  <path class="cls-1" d="m627.47,544.64c-2.74-4.66-5.99-8.4-9.73-11.22,2.16-1.33,4.18-2.83,6.05-4.49,1.87-1.66,3.6-3.57,5.18-5.74l33.42-46.02h-35.42c-2.99,0-5.47.5-7.42,1.5-1.95,1-3.64,2.58-5.05,4.74l-17.46,30.65c-1.17,1.75-9.37,16.51-10.66,17.18-1.29.67-3.14,1-5.55,1h-5.74v-54.55h-9.12c.02.15.03.3.03.47v23.18c0,.35.02.7-.01,1.05-.02.25-.08.51-.18.75-.25.56-.83.84-1.42.65-.31-.1-.6-.28-.85-.49-2.39-2.02-4.78-4.06-7.16-6.09-.64-.54-1.37-.55-2,0-1.78,1.51-3.55,3.02-5.33,4.53-.68.58-1.35,1.18-2.05,1.72-1,.78-2.11.36-2.33-.86-.02-.13-.02-.26-.02-.39,0-8.08,0-16.15,0-24.23,0-.1.02-.19.03-.28h-8.24v128.82h38.66l1.16-61.26h5.2c1.6,0,3.84.81,5.58,1.56,1.38.59,2.43,1.73,2.94,3.13.51,1.4,1.2,3.19,1.84,4.31l24.44,45.77c1.33,2.41,3.06,4.1,5.18,5.05,2.12.96,4.63,1.43,7.55,1.43h34.92l-36.42-61.86Z"/>
</svg>