<?xml version="1.0" encoding="UTF-8"?>
<svg id="Layer_1" data-name="Layer 1" xmlns="http://www.w3.org/2000/svg" viewBox="0 0 298 284">
  <defs>
    <style>
      .cls-1 {
        fill: none;
        stroke: #fffcf7;
        stroke-miterlimit: 10;
        stroke-width: 3px;
      }
    </style>
  </defs>
  <path class="cls-1" d="m251.72,145.45c6.02-6.02,12.03-12.03,18.05-18.05,2.99-2.99,4.18-6.51,1.72-11.24-.88-.88-1.75-1.75-2.63-2.63-3.14-.89-6.27-2.07-9.4-2.62-5.95-1.04-11.91-2.05-17.86-3.06,3.38-4.76,6.76-9.54,10.14-14.3,1.97-2.77,3.98-5.5,4.95-9.05v-3.72c-1.59-5.09-4.84-7.09-9.17-7.09-8.51,0-17.02,0-25.53,0,0-8.51,0-17.02,0-25.53,0-4.22-1.65-7.56-6.73-9.17h-3.72c-2.85,1.59-5.9,2.97-8.5,4.8-4.95,3.48-9.87,6.98-14.79,10.48-.98-5.76-1.97-11.53-2.94-17.29-.57-3.36-1.08-6.7-2.9-9.9-.88-.88-1.75-1.75-2.63-2.63-4.72-2.47-8.44-1.6-11.5,1.46-6.02,6.02-12.03,12.03-18.05,18.05-6.02-6.02-12.03-12.03-18.05-18.05-3.06-3.06-6.78-3.94-11.5-1.46-.88.88-1.75,1.75-2.63,2.63-1.82,3.2-2.33,6.54-2.9,9.9-.95,5.62-1.91,11.24-2.87,16.86-4.65-3.3-9.3-6.59-13.95-9.9-2.77-1.97-5.5-3.98-9.05-4.95h-3.72c-5.09,1.59-7.09,4.84-7.09,9.17,0,8.51,0,17.02,0,25.53-8.51,0-17.02,0-25.53,0-4.33,0-7.58,2.01-9.17,7.09v3.72c.97,3.55,2.98,6.28,4.95,9.05,3.38,4.76,6.76,9.53,10.14,14.3-5.95,1.01-11.91,2.03-17.86,3.06-3.13.55-6.27,1.73-9.4,2.62-.88.88-1.75,1.75-2.63,2.63-2.46,4.72-1.27,8.25,1.72,11.24,6.02,6.02,12.04,12.03,18.05,18.05-6.02,6.02-12.03,12.03-18.05,18.05-3.06,3.06-3.94,6.78-1.46,11.5.88.88,1.75,1.75,2.63,2.63,3.2,1.82,6.54,2.33,9.9,2.9,5.77.97,11.53,1.96,17.29,2.94-3.5,4.93-7,9.85-10.48,14.8-1.83,2.6-3.21,5.66-4.8,8.5v3.72c1.6,5.08,4.94,6.73,9.17,6.73,8.51,0,17.02,0,25.53,0,0,8.51,0,17.02,0,25.53,0,4.33,2.01,7.58,7.09,9.17h3.72c3.55-.97,6.27-2.98,9.05-4.95,4.76-3.38,9.53-6.76,14.3-10.14,1.01,5.95,2.03,11.91,3.06,17.86.55,3.13,1.73,6.27,2.62,9.4.88.88,1.75,1.75,2.63,2.63,4.72,2.46,8.25,1.27,11.24-1.72,6.02-6.02,12.03-12.04,18.05-18.05,6.02,6.02,12.03,12.03,18.05,18.05,2.99,2.99,6.52,4.18,11.24,1.72.88-.88,1.75-1.75,2.63-2.63.89-3.13,2.07-6.27,2.62-9.4,1.06-6.1,2.1-12.2,3.14-18.3,5.04,3.58,10.08,7.16,15.14,10.72,2.6,1.83,5.66,3.21,8.5,4.8h3.72c5.08-1.6,6.73-4.94,6.73-9.17,0-8.51,0-17.02,0-25.53,8.51,0,17.02,0,25.53,0,4.22,0,7.56-1.65,9.17-6.73v-3.72c-1.59-2.85-2.97-5.9-4.8-8.5-3.48-4.95-6.98-9.87-10.48-14.8,5.76-.98,11.53-1.97,17.29-2.94,3.36-.57,6.7-1.08,9.9-2.9.88-.88,1.75-1.75,2.63-2.63,2.47-4.72,1.6-8.44-1.46-11.5-6.02-6.02-12.03-12.03-18.05-18.05Z"/>
</svg>